<?xml version="1.0" encoding="UTF-8"?>
<svg width="15px" height="16px" viewBox="0 0 15 16" version="1.1" xmlns="http://www.w3.org/2000/svg" xmlns:xlink="http://www.w3.org/1999/xlink">
    <title>apple</title>
    <g id="页面-1" stroke="none" stroke-width="1" fill="none" fill-rule="evenodd">
        <g id="切图" transform="translate(-423, -30)" fill="#343642" fill-rule="nonzero">
            <path d="M435.680635,39.9474813 C435.484682,39.4974464 435.375162,38.9925122 435.375162,38.4591182 C435.375162,38.2342008 435.394601,38.0161633 435.432197,37.8060857 C435.59364,36.898796 436.088713,36.1497045 436.771943,35.66487 C436.893967,35.578611 437.021824,35.5001119 437.15495,35.4308927 C436.233463,33.9818491 434.734278,33.7581917 434.262452,33.7092523 C433.236194,33.6032135 431.790737,34.3968844 431.005823,34.4099443 L430.985482,34.4099443 C430.200749,34.3969044 428.755692,33.6032334 427.728854,33.7092523 C427.21817,33.7621916 425.586038,34.1003678 424.601724,35.66487 C424.256472,36.2140438 423.99078,36.9140158 423.88126,37.8060857 C423.841681,38.128342 423.822983,38.4748781 423.827693,38.8484138 C423.832422,39.2230496 423.862382,39.5900654 423.913946,39.9474813 C424.024006,40.7103527 424.231402,41.4295245 424.499459,42.088877 C424.796755,42.8200287 425.16814,43.4772012 425.563693,44.0356148 C426.439228,45.2715008 427.430836,45.9868727 427.989095,45.9993725 C429.137598,46.0251122 430.135919,45.250301 430.95933,45.2704208 C430.968047,45.2724008 430.976945,45.2733208 430.985482,45.2724008 L430.995663,45.2718608 L431.005843,45.2724008 C431.01456,45.2733008 431.023098,45.2724008 431.031274,45.2704208 C431.854865,45.249401 432.853547,46.0251122 434.002771,45.9993725 C434.56105,45.9868726 435.552638,45.2715008 436.428173,44.0356148 C436.823366,43.4772012 437.195111,42.8200087 437.492607,42.088877 C437.536555,41.9797582 437.579041,41.8691995 437.620083,41.7572008 C436.764848,41.4896838 436.060737,40.8219714 435.680635,39.9474813 Z M433.012987,32.6188846 C433.894694,31.5767565 433.860726,30.0764135 433.781187,30.0097143 C433.701647,29.9426551 432.243324,30.209812 431.339271,31.2179006 C430.43558,32.2259691 430.491512,33.7607516 430.571432,33.8270909 C430.650771,33.8941301 432.13144,33.6617728 433.012987,32.6188846 Z" id="apple"></path>
        </g>
    </g>
</svg>