<?xml version="1.0" encoding="UTF-8"?>
<svg width="15px" height="16px" viewBox="0 0 15 16" version="1.1" xmlns="http://www.w3.org/2000/svg" xmlns:xlink="http://www.w3.org/1999/xlink">
    <title>google_play</title>
    <g id="页面-1" stroke="none" stroke-width="1" fill="none" fill-rule="evenodd">
        <g id="切图" transform="translate(-457, -30)" fill="#ffffff" fill-rule="nonzero">
            <path d="M457.620084,44.9035241 L457.620084,31.0964928 L457.620084,31.0964734 C457.61937,30.6289828 457.884902,30.2025719 458.302874,30 L466.311442,38 L458.302874,46 L458.302874,46 C457.886383,45.7957578 457.621504,45.3703953 457.620084,44.9035234 M468.681335,40.72505 L459.990455,46 L466.848158,38.8 L468.681813,40.7237775 M471.407701,37.4468006 L471.407701,37.4468006 C471.679054,37.6741162 471.83941,38.0258703 471.842242,38.4 L471.842242,38.4 C471.84594,38.7695864 471.690217,39.1194213 471.422088,39.3438883 L469.734285,40.4 L467.891689,38.4 L469.734299,36.4 L471.407276,37.4479935 M459.990455,30 L468.681813,35.2758825 L466.848058,37.2 L459.990455,30 Z" id="google_play"></path>
        </g>
    </g>
</svg>