<?xml version="1.0" encoding="UTF-8"?>
<svg width="15px" height="18px" viewBox="0 0 15 18" version="1.1" xmlns="http://www.w3.org/2000/svg" xmlns:xlink="http://www.w3.org/1999/xlink">
    <title>Platform</title>
    <g id="页面-1" stroke="none" stroke-width="1" fill="none" fill-rule="evenodd">
        <g id="切图" transform="translate(-275, -30)" fill="#666666" fill-rule="nonzero">
            <path d="M286.259926,30 C288.229227,30 289.825661,31.5964338 289.825661,33.5657347 L289.825661,44.4342653 C289.825661,46.4035662 288.229227,48 286.259926,48 L279.07224,48 C277.10294,48 275.506506,46.4035662 275.506506,44.4342653 L275.506506,33.5657347 C275.506506,31.5964338 277.10294,30 279.07224,30 Z M286.259926,31.6383105 L279.07224,31.6383105 C278.007753,31.6383105 277.144816,32.5012477 277.144816,33.5657347 L277.144816,44.4342653 C277.144816,45.4987523 278.007753,46.3616895 279.07224,46.3616895 L286.259926,46.3616895 C287.324413,46.3616895 288.18735,45.4987523 288.18735,44.4342653 L288.18735,33.5657347 C288.18735,32.5012477 287.324413,31.6383105 286.259926,31.6383105 Z M282.666083,42.1483127 C283.552285,42.1483127 284.270693,42.8667208 284.270693,43.752922 C284.270693,44.6391232 283.552285,45.3575313 282.666083,45.3575313 C281.779882,45.3575313 281.061474,44.6391232 281.061474,43.752922 C281.061474,42.8667208 281.779882,42.1483127 282.666083,42.1483127 Z M284.805984,32.6291902 C285.188342,32.6291902 285.498304,32.9391527 285.498304,33.3215109 C285.498304,33.703869 285.188342,34.0138316 284.805984,34.0138316 L280.526183,34.0138316 C280.143825,34.0138316 279.833862,33.703869 279.833862,33.3215109 C279.833862,32.9391527 280.143825,32.6291902 280.526183,32.6291902 L284.805984,32.6291902 Z" id="Platform"></path>
        </g>
    </g>
</svg>