<?xml version="1.0" encoding="UTF-8"?>
<svg width="19px" height="18px" viewBox="0 0 19 18" version="1.1" xmlns="http://www.w3.org/2000/svg" xmlns:xlink="http://www.w3.org/1999/xlink">
    <title>Size</title>
    <g id="页面-1" stroke="none" stroke-width="1" fill="none" fill-rule="evenodd">
        <g id="切图" transform="translate(-347, -30)" fill="#666666" fill-rule="nonzero">
            <path d="M362.093918,30 C364.027771,30 365.624632,31.5460221 365.808261,33.5388581 L365.821303,33.726962 L365.825661,33.9165953 L365.825661,44.0834047 C365.825661,46.1079347 364.357502,47.7878832 362.454524,47.9816277 L362.274877,47.9954023 L362.093918,48 L351.557404,48 C349.623551,48 348.02669,46.4539779 347.843061,44.4611419 L347.830019,44.273038 L347.825661,44.0834047 L347.825661,33.9165953 C347.825661,31.8920653 349.29382,30.2121168 351.196798,30.0183723 L351.376445,30.0045977 L351.557404,30 L362.093918,30 Z M362.797271,31.961561 L362.797907,35.65507 C362.797907,37.1563176 361.692146,38.4052384 360.247689,38.5734271 L360.085838,38.5876252 L359.923343,38.5923345 L353.728083,38.5923345 C352.256612,38.5923345 351.035949,37.4601507 350.871854,35.9861055 L350.85801,35.820956 L350.853415,35.6550726 L350.853173,31.962439 C350.187928,32.2319807 349.702363,32.8642668 349.601522,33.615719 L349.586545,33.7675259 L349.58173,33.9165953 L349.58173,44.0834047 C349.58173,45.1433649 350.328354,46.0228534 351.292929,46.156525 L351.425763,46.170077 L351.557404,46.1745051 L362.093925,46.1745051 C363.090524,46.1745051 363.924843,45.3893752 364.052316,44.3642742 L364.065266,44.2230515 L364.069489,44.0834047 L364.069489,33.9165953 C364.069489,33.0900043 363.613116,32.3633246 362.938895,32.0255358 L362.797271,31.961561 Z M361.030637,31.7973659 L352.619807,31.7973659 L352.620069,35.65507 C352.620069,36.2460848 353.057077,36.7303526 353.614984,36.7885774 L353.728083,36.7944472 L359.923343,36.7944472 C360.495964,36.7944472 360.96876,36.3471178 361.025623,35.771755 L361.031356,35.65507 L361.030637,31.7973659 Z M358.672532,32.5087108 C359.161628,32.5087108 359.45386,32.7751347 359.493112,33.2436795 L359.497654,33.3553639 L359.497654,34.6098173 C359.497654,35.1474617 359.199246,35.456446 358.672532,35.456446 C358.183469,35.456446 357.89131,35.1900337 357.852069,34.7214993 L357.847528,34.6098173 L357.847528,33.3553639 C357.847528,32.8176905 358.145845,32.5087108 358.672532,32.5087108 Z" id="Size"></path>
        </g>
    </g>
</svg>