<?xml version="1.0" encoding="UTF-8"?>
<svg width="19px" height="18px" viewBox="0 0 19 18" version="1.1" xmlns="http://www.w3.org/2000/svg" xmlns:xlink="http://www.w3.org/1999/xlink">
    <title>Updated</title>
    <g id="页面-1" stroke="none" stroke-width="1" fill="none" fill-rule="evenodd">
        <g id="切图" transform="translate(-385, -30)" fill="#666666">
            <path d="M399.32572,30 C399.822752,30 400.225661,30.374295 400.225661,30.8360293 L400.224661,31.608 L401.576856,31.6081562 C402.765558,31.6081562 403.738935,32.5147539 403.82133,33.6632836 L403.826979,33.8213385 L403.826979,45.7869258 C403.826979,47.0091977 402.81959,48 401.576856,48 L388.075785,48 C386.833138,48 385.825661,47.0091977 385.825661,45.7869258 L385.825661,33.8213385 C385.825661,32.599045 386.833138,31.6081562 388.075785,31.6081562 L389.425661,31.608 L389.425661,30.8298758 C389.425661,30.4067967 389.747558,30.0576736 390.163678,30.0064658 L390.26954,30 C390.735549,30 391.113309,30.3715401 391.113309,30.8298758 L391.112661,31.608 L398.424661,31.608 L398.425661,30.8360293 C398.425661,30.409813 398.768988,30.0581012 399.212811,30.0065137 Z M402.138661,37.14 L387.512661,37.14 L387.513309,45.7869258 C387.513309,46.0618883 387.717305,46.290022 387.984553,46.3328992 L388.075785,46.3401403 L401.576856,46.3401403 C401.887506,46.3401403 402.139332,46.0924397 402.139332,45.7869258 L402.138661,37.14 Z M399.077026,42.7868852 C399.54645,42.7868852 399.926979,43.1611721 399.926979,43.6228964 C399.926979,44.0846207 399.54645,44.4590164 399.077026,44.4590164 L390.577044,44.4590164 C390.107531,44.4590164 389.726979,44.0846207 389.726979,43.6228964 C389.726979,43.1611721 390.107531,42.7868852 390.577044,42.7868852 Z M399.077026,39.442623 C399.54645,39.442623 399.926979,39.8169316 399.926979,40.278743 C399.926979,40.7404672 399.54645,41.1147541 399.077026,41.1147541 L390.577044,41.1147541 C390.107531,41.1147541 389.726979,40.7404672 389.726979,40.278743 C389.726979,39.8169316 390.107531,39.442623 390.577044,39.442623 Z M401.576856,33.2680159 L400.224661,33.268 L400.225661,34.1803642 C400.225661,34.6065804 399.882354,34.9582922 399.438608,35.0098797 L399.32572,35.0163934 C398.828593,35.0163934 398.425661,34.6420984 398.425661,34.1803642 L398.424661,33.268 L391.112661,33.268 L391.113309,34.1495952 C391.113309,34.5726744 390.79143,34.9217975 390.375382,34.9730053 L390.26954,34.9794711 C389.803443,34.9794711 389.425661,34.607931 389.425661,34.1495952 L389.425661,33.268 L388.075785,33.2680159 C387.796219,33.2680159 387.564266,33.4686534 387.520671,33.7315793 L387.513309,33.8213385 L387.512661,35.481 L402.138661,35.481 L402.139332,33.8213385 C402.139332,33.5462787 401.935353,33.3181352 401.668093,33.2752571 L401.576856,33.2680159 Z" id="Updated"></path>
        </g>
    </g>
</svg>