<?xml version="1.0" encoding="UTF-8"?>
<svg width="19px" height="18px" viewBox="0 0 19 18" version="1.1" xmlns="http://www.w3.org/2000/svg" xmlns:xlink="http://www.w3.org/1999/xlink">
    <title>Version</title>
    <g id="页面-1" stroke="none" stroke-width="1" fill="none" fill-rule="evenodd">
        <g id="切图" transform="translate(-309, -30)" fill="#666666">
            <path d="M319.221136,31.6295224 C318.974777,31.5042123 318.676773,31.5042123 318.43054,31.6295224 L311.474825,35.1597698 L318.43054,38.6919801 C318.677528,38.816968 318.975155,38.816968 319.221136,38.6919801 L326.17575,35.1597698 L319.220035,31.6275887 L319.221136,31.6295224 Z M317.640919,30.2814644 C318.379398,29.9061785 319.272152,29.9061785 320.010631,30.2814644 L326.965213,33.8117117 C328.112477,34.3946953 328.112477,35.9268072 326.965213,36.5088826 L325.840483,37.079883 L326.965213,37.6518797 C328.112477,38.233955 328.112477,39.7660669 326.965213,40.3480251 L325.840483,40.9201682 L326.965213,41.490114 C328.112477,42.0732148 328.112477,43.6053266 326.965213,44.1873141 L320.010631,47.7184697 C319.272152,48.0938434 318.379398,48.0938434 317.640919,47.7184697 L310.68533,44.1883396 C309.539105,43.6053266 309.539105,42.0732148 310.68533,41.4911394 L311.811067,40.9201682 L310.68533,40.3480251 C309.539105,39.7660669 309.539105,38.233955 310.68533,37.6518797 L311.811067,37.079883 L310.68533,36.509908 C309.539105,35.9268072 309.539105,34.3946953 310.68533,33.8127372 L317.640919,30.2814644 Z M313.532057,37.9549444 L311.474825,38.999967 L318.43054,42.5322653 C318.677528,42.6572531 318.975155,42.6572531 319.221136,42.5322653 L326.17575,38.999967 L324.117416,37.9549444 L320.009656,40.0400675 C319.271176,40.415324 318.378297,40.415324 317.639817,40.0400675 L313.532057,37.9549444 Z M313.532057,41.7942042 L311.473723,42.8392268 L318.429438,46.3714078 C318.676521,46.4965129 318.974053,46.4965129 319.220035,46.3714078 L326.17575,42.8392268 L324.117416,41.7942042 L320.009656,43.8793272 C319.271176,44.2545837 318.378297,44.2545837 317.639817,43.8793272 L313.532057,41.7942042 Z" id="Version"></path>
        </g>
    </g>
</svg>